<svg xmlns="http://www.w3.org/2000/svg" width="25" height="24" viewBox="0 0 25 24">
  <path fill="#DCE1E0" d="M8.39496,14.88216 C8.79168,14.88216 9.11244,15.20364 9.11244,15.59964 C9.11244,15.99564 8.79132,16.31676 8.39496,16.31676 C7.99896,16.31676 7.67784,15.99564 7.67784,15.59964 C7.67784,15.20364 7.99932,14.88216 8.39496,14.88216 Z M6.2922,12.82764 C5.83824,9.678 8.0238,6.75732 11.17344,6.30336 C14.32308,5.8494 17.24412,8.03496 17.69808,11.1846 C18.15204,14.33424 15.96648,17.25528 12.81684,17.70924 C12.78156,17.71464 12.74772,17.71464 12.7128,17.7186 L12.81936,17.70384 C12.42552,17.76036 12.0612,17.48712 12.00396,17.09364 C11.94744,16.70016 12.22068,16.33476 12.61416,16.27752 L12.61308,16.275 C12.61416,16.275 12.61488,16.275 12.61596,16.275 C14.97756,15.9348 16.6152,13.74492 16.275,11.38332 C15.9348,9.02136 13.74528,7.38372 11.38332,7.72392 C9.0228,8.06412 7.38372,10.254 7.72428,12.6156 C7.72428,12.61668 7.72428,12.6174 7.725,12.6174 L7.72248,12.61848 C7.779,13.01196 7.50576,13.37664 7.11228,13.43352 C6.7188,13.49004 6.3534,13.21716 6.29616,12.82368 L6.312,12.93096 C6.30696,12.89568 6.29724,12.86256 6.2922,12.82764 Z M17.75604,5.1618 C17.75604,4.56492 18.2406,4.08036 18.8382,4.08036 C19.42932,4.08036 19.90848,4.55484 19.91784,5.14524 L19.91784,5.17908 C19.90848,5.76948 19.42932,6.24396 18.8382,6.24396 C18.2406,6.24396 17.75604,5.7594 17.75604,5.1618 Z M21.59796,21.5472 C20.34588,22.81224 18.60852,23.52 15.60432,23.52 L8.39496,23.52 C5.39076,23.52 3.65376,22.81224 2.4024,21.5472 C1.16688,20.29944 0.48,18.55776 0.48,15.60504 L0.48,8.39568 C0.48,5.44188 1.16688,3.70128 2.4024,2.45352 C3.65376,1.18812 5.39076,0.48 8.39496,0.48 L15.60396,0.48 C18.60852,0.48 20.34552,1.18812 21.5976,2.45352 C21.67788,2.5338 21.75132,2.622 21.82548,2.70912 C21.9774,2.84088 22.07568,3.03384 22.07568,3.25092 C22.07568,3.64872 21.75348,3.97092 21.35568,3.97092 C21.13824,3.97092 20.94528,3.87228 20.81352,3.71964 L20.80416,3.7272 C20.73,3.639 20.66052,3.54756 20.57844,3.46512 C19.48332,2.35776 17.86656,1.92324 15.23712,1.92324 L8.75892,1.92324 C6.1302,1.92324 4.51668,2.35776 3.42156,3.46512 C2.34048,4.557 1.92,6.17808 1.92,8.7618 L1.92,15.24072 C1.92,17.82552 2.34048,19.44228 3.42156,20.5338 C4.51668,21.6408 6.1302,22.08 8.75892,22.08 L15.23784,22.08 C17.86728,22.08 19.48404,21.6408 20.57916,20.5338 C21.66024,19.44228 22.0764,17.82552 22.0764,15.24072 L22.0764,8.76216 C22.0764,8.13288 22.05048,7.56228 21.99792,7.04136 L22.00116,7.04064 C21.96228,6.64356 22.24992,6.2886 22.64772,6.24648 C23.04624,6.20544 23.40372,6.49488 23.4444,6.89268 C23.44548,6.90312 23.4444,6.91284 23.4444,6.92328 L23.4462,6.92328 C23.48976,7.38192 23.52,7.86252 23.52,8.39568 L23.52,15.60468 C23.52,18.55776 22.8324,20.29944 21.59796,21.5472 Z" opacity=".7" transform="translate(.509 .391)"/>
</svg>
