<svg xmlns="http://www.w3.org/2000/svg" width="26" height="24" viewBox="0 0 26 24">
  <path fill="#DCE1E0" fill-rule="evenodd" d="M23.245056,23.63904 L19.3056592,23.63904 C18.3514792,23.63904 17.5562225,22.961486 17.3745959,22.0611341 C17.3611512,22.0611341 17.3488392,22.0630548 17.3353452,22.0630548 L17.3353452,14.9322398 C17.3353452,14.0831058 16.6297199,13.3958992 15.7594585,13.3958992 C14.8891478,13.3958992 14.1835225,14.0831058 14.1835225,14.9322398 L14.1835225,21.6486821 L14.1835225,21.6698587 C14.1835225,22.1504207 14.0038658,22.5832614 13.7187199,22.9260767 C13.5621112,23.1631073 13.2947438,23.319322 12.9896032,23.319322 C12.5063819,23.319322 12.1150572,22.9279974 12.1150572,22.4447268 C12.1150572,22.1892281 12.2262592,21.9615054 12.4020746,21.8014494 C12.5294299,21.6609941 12.6079312,21.4790227 12.6079312,21.2758255 L12.6079312,20.1492775 L12.6079312,18.5270976 L12.6079312,14.8587618 C12.6079312,13.1804392 14.0187879,11.81952 15.7594092,11.81952 C17.4999813,11.81952 18.911626,13.1804392 18.911626,14.8587618 L18.911626,20.1492775 C18.911626,20.2058142 18.906258,20.2547174 18.9027613,20.3066248 C18.90547,20.3058369 18.9089173,20.3058369 18.911626,20.3047042 L18.911626,21.2758255 C18.911626,21.7106361 19.2640447,22.0630548 19.699594,22.0630548 L22.851072,22.0630548 C23.2866213,22.0630548 23.63904,21.7106361 23.63904,21.2758255 L23.63904,14.1839165 C23.63904,14.1246711 23.632096,14.0680852 23.619784,14.0126319 C23.417424,10.5905854 20.6849972,7.87918752 17.3353452,7.87918752 C15.9448772,7.87918752 14.6644785,8.35088486 13.6241145,9.14274346 C13.6202731,9.14082278 13.6160378,9.14161075 13.6079611,9.14776675 C13.5021764,9.23281805 13.3686651,9.28319875 13.2232357,9.28319875 C12.8827351,9.28319875 12.6080297,9.00731146 12.6080297,8.66720477 C12.6080297,8.62490074 12.6055181,8.60293613 12.6010858,8.59678013 C12.5647407,8.19545818 12.2307408,7.87918752 11.8200617,7.87918752 L9.45581299,7.87918752 C8.58569933,7.87918752 7.87972925,8.58520685 7.87972925,9.45556675 L7.87972925,21.2758255 C7.87972925,21.3466441 7.89223824,21.4147541 7.90972128,21.4798107 C7.89125328,21.5363474 7.87972925,21.5990893 7.87972925,21.6698587 C7.87972925,22.75755 6.99809155,23.63904 5.90961226,23.63904 L5.76551261,23.63904 L1.97006774,23.63904 C0.882622656,23.63904 0,22.75755 0,21.6698587 L0,8.27317152 C0,7.18548019 0.882622656,6.30399024 1.97006774,6.30399024 L3.94018474,6.30399024 C5.24505974,6.30399024 6.30349776,5.24550298 6.30349776,3.93959376 C6.30349776,2.63373379 5.24505974,1.57524653 3.94018474,1.57524653 C2.63452176,1.57524653 1.57613299,2.63373379 1.57613299,3.93959376 C1.57613299,4.37514307 1.2237143,4.72756176 0.787968,4.72756176 C0.353403648,4.72756176 1.74964043e-16,4.37514307 1.74964043e-16,3.93959376 C0,1.76337389 1.76426035,0 3.94018474,0 C6.11630611,0 7.87963075,1.76337389 7.87963075,3.93959376 C7.87963075,4.1392944 7.86017779,4.33357776 7.83117072,4.52559571 C7.82481773,4.56253171 7.82137037,4.60060042 7.81422941,4.63753642 C7.77980506,4.82916038 7.7330687,5.01768173 7.67111472,5.19852038 C7.66860307,5.20738502 7.66417075,5.2154617 7.66151136,5.22427709 C7.52548838,5.6156017 7.33199299,5.97801773 7.08727968,6.30315302 C6.36894835,7.25812099 5.22836467,7.87913827 3.94023398,7.87913827 L2.36405174,7.87913827 C1.92850243,7.87913827 1.57608374,8.23273891 1.57608374,8.66710627 L1.57608374,21.275727 C1.57608374,21.7105376 1.92850243,22.0629563 2.36405174,22.0629563 L6.34329014,22.0629563 C6.31768118,21.9356009 6.30344851,21.8047982 6.30344851,21.6697602 L6.30344851,9.45556675 C6.30344851,7.71489619 7.71529018,6.30399024 9.45566525,6.30399024 L12.213898,6.30399024 C12.700616,6.30399024 13.14306,6.48330221 13.4862693,6.77760826 C13.4905046,6.7803169 13.49474,6.77568758 13.4993693,6.77913494 C13.6371159,6.89762563 13.8156399,6.96844426 14.0111052,6.96844426 C14.1188599,6.96844426 14.2211972,6.94726762 14.313882,6.90801696 C14.3419533,6.89570496 14.3588946,6.89762563 14.375048,6.8995463 C15.2899773,6.52481827 16.2848854,6.30394099 17.3352468,6.30394099 C21.4197774,6.30394099 24.7778015,9.41203152 25.1752329,13.3912699 C25.2017775,13.5194132 25.2148775,13.6536633 25.2148775,13.7898832 L25.2148775,21.6698587 C25.214976,22.75755 24.3335353,23.63904 23.245056,23.63904 Z M10.2438795,22.0630548 C10.6784438,22.0630548 11.0318475,22.4162614 11.0318475,22.8510228 C11.0318475,23.2866213 10.6784931,23.63904 10.2438795,23.63904 C9.80833018,23.63904 9.4557145,23.2866213 9.4557145,22.8510228 C9.4557145,22.4162614 9.80837942,22.0630548 10.2438795,22.0630548 Z" opacity=".7" transform="translate(.109 .181)"/>
</svg>
