<svg xmlns="http://www.w3.org/2000/svg" width="223" height="46" viewBox="0 0 223 46">
  <defs>
    <linearGradient id="logo-a" x1="12.453%" x2="87.895%" y1="84.924%" y2="16.33%">
      <stop offset="0%" stop-color="#1D8DBA"/>
      <stop offset="100%" stop-color="#03ECAE"/>
    </linearGradient>
  </defs>
  <g fill="none" fill-rule="evenodd" transform="translate(.068 .131)">
    <g fill="#FFF" fill-rule="nonzero" transform="translate(47.632 14.4)">
      <path d="M12.7152.3792L8.4672.3792C6.33880393.30327556 4.26723895 1.07493351 2.7072 2.5248 1.20247005 4.00449339.393473431 6.05139433.48 8.16.418550831 10.3236622 1.2378787 12.4196172 2.7504 13.968 4.26484816 15.5065304 6.35257739 16.3433618 8.5104 16.2768L12.7584 16.2768C14.9166396 16.3457212 17.0052799 15.5085246 18.5184 13.968 20.0045096 12.4073996 20.7987648 10.3136111 20.7216 8.16 20.8012999 6.04880654 19.9854403 4.00218427 18.4752 2.5248 16.9160076 1.0735616 14.8438533.301684139 12.7152.3792zM12.7152 12.936L8.4672 12.936C7.2224331 12.9877357 6.00994567 12.5321869 5.1072 11.6736 4.22261035 10.814213 3.7475064 9.6177196 3.8016 8.3856 3.74802484 7.13382259 4.22184479 5.91694602 5.1077954 5.0309954 5.99374602 4.14504479 7.21062259 3.67122484 8.4624 3.7248L12.7104 3.7248C13.9618617 3.67648709 15.1777107 4.14719435 16.0704 5.0256 16.9587982 5.91245057 17.4342063 7.13144564 17.3808 8.3856 17.4348936 9.6177196 16.9597896 10.814213 16.0752 11.6736 15.1742881 12.5376237 13.9627818 13.0014575 12.7152 12.96L12.7152 12.936zM41.5392 2.9424C40.44 1.2288 38.5056.36 35.7792.36L24.5424.36 24.5424 16.2528 35.7984 16.2528C38.6496 16.2528 40.5984 15.3312 41.664 13.5168 42.6315862 11.8231372 42.2700525 9.68205397 40.8 8.4 41.7090958 7.59525257 42.2254684 6.4364774 42.216 5.2224 42.2081694 4.41404563 41.9736821 3.62410624 41.5392 2.9424zM36.1968 6.7488L30.1344 6.7488 30.1344 10.1088 36.1968 10.1088C36.8122769 10.0999936 37.4236026 10.2108473 37.9968 10.4352 38.9568 10.8384 38.9568 11.3664 38.9568 11.544 38.9568 11.7216 38.9568 12.2256 38.0208 12.6192 37.4425855 12.8360649 36.8286525 12.9419154 36.2112 12.9312L27.888 12.9312 27.888 3.7008 36.1968 3.7008C36.8268407 3.688413 37.452669 3.80606218 38.0352 4.0464 38.6448 4.3296 38.9424 4.7088 38.9424 5.2032 38.9424 5.5248 38.8512 6 38.0352 6.3792 37.4564293 6.63418266 36.8291445 6.76029474 36.1968 6.7488zM61.8192 7.4784C60.7305781 6.5634002 59.3430249 6.08151596 57.9216 6.1248L50.7552 6.1248C50.366927 6.13737602 49.9854356 6.02090297 49.6704 5.7936 49.4015685 5.59241538 49.2518703 5.26957222 49.272 4.9344 49.2565029 4.59769041 49.4071836 4.2748033 49.6752 4.0704 49.9836982 3.83242906 50.3658591 3.71013754 50.7552 3.7248L62.5632 3.7248 62.5632.3648 50.7552.3648C49.4747488.325582443 48.2216793.740438582 47.2176 1.536 46.2044933 2.35246419 45.6309898 3.59535102 45.6672 4.896 45.6256557 6.20453045 46.1994671 7.45696702 47.2176 8.28 48.2216793 9.07556142 49.4747488 9.49041756 50.7552 9.4512L57.9216 9.4512C58.5123985 9.43320394 59.0968106 9.5776467 59.6112 9.8688 60.0917145 10.1134523 60.3900488 10.6112978 60.3792 11.1504 60.388974 11.6965439 60.1024925 12.2052322 59.6304 12.48 59.1132264 12.7839148 58.5212656 12.9368935 57.9216 12.9216L45.9792 12.9216 45.9792 16.2816 57.9216 16.2816C59.33585 16.3259591 60.7189989 15.8609349 61.8192 14.9712 62.9134391 14.0452943 63.5235756 12.6693921 63.4752 11.2368 63.5203371 9.7979627 62.9114633 8.41608386 61.8192 7.4784zM102.4224 9.7872C103.279622 8.80691333 103.740074 7.54195681 103.7136 6.24 103.7136 4.2528 102.9696 2.7264 101.496 1.6992 100.2384.8112 98.5776.36 96.5568.36L85.3056.36 85.3056 16.2768 88.6656 16.2768 88.6656 3.7248 96.96 3.7248C99.8832 3.7248 100.2192 5.1648 100.2192 6.216 100.253628 6.96214885 99.8877693 7.67008541 99.2592 8.0736 98.5632951 8.47977289 97.7649421 8.67644439 96.96 8.64L90.8976 8.64 90.8976 12 95.4336 12 99.6816 16.2768 104.5632 16.2768 99.7632 11.5248C100.788185 11.19204 101.706045 10.5922831 102.4224 9.7872zM115.9968 11.3424L109.44.3792 105.2112.3792 114.0144 14.88C114.7104 16.008 115.32 16.536 115.9344 16.536 116.5488 16.536 117.1968 15.9936 117.8784 14.88L126.888.3936 122.6592.3936 115.9968 11.3424z"/>
      <rect width="3.341" height="15.893" x="129.187" y=".379"/>
      <path d="M147.4128.9024C146.4816.1728 145.6416.1056 144.576.9264 144.191459 1.21957351 143.865751 1.58273855 143.616 1.9968L135.0576 16.2768 139.2624 16.2768 145.92 5.3088 148.08 8.8944 143.9136 12 149.9664 12 152.5056 16.2528 156.7296 16.2816 148.368 2.0016C148.12205 1.57803901 147.797909 1.20503242 147.4128.9024zM171.84.3792L171.84 10.4592 162.6672 1.2624C162.222158.743729334 161.587462.425516491 160.9056.3792 160.474123.366385669 160.063641.56535283 159.8064.912 159.564632 1.23767458 159.437991 1.63448185 159.4464 2.04L159.4464 16.2768 162.768 16.2768 162.768 6.24 171.9216 15.4464C172.6032 16.1184 173.2224 16.4496 173.8128 16.4496 174.3168 16.4496 175.1664 16.2144 175.1664 14.6352L175.1664.3792 171.84.3792z"/>
      <rect width="13.824" height="3.341" x="67.301" y=".379"/>
      <polygon points="70.642 9.888 80.434 9.888 80.434 6.547 67.301 6.547 67.301 16.277 81.125 16.277 81.125 12.936 70.642 12.936"/>
    </g>
    <path fill="url(#logo-a)" fill-rule="nonzero" d="M30.6875646,19.4784 L30.6875646,27.3312 C30.6885772,28.0181612 30.3224916,28.6533198 29.7275646,28.9968 L21.7115646,33.6288 C21.1175146,33.971775 20.3856147,33.971775 19.7915646,33.6288 L11.7755646,28.9968 C11.1806377,28.6533198 10.8145521,28.0181612 10.8155646,27.3312 L10.8155646,19.4784 C10.813362,19.2818139 10.9167875,19.0991556 11.086497,18.9999103 C11.2562064,18.900665 11.4661125,18.9000885 11.6363646,18.9984 L20.0267646,23.8464 C20.2471919,23.974375 20.4967157,24.0437789 20.7515646,24.048 C21.0079476,24.0485202 21.2598207,23.9805808 21.4811646,23.8512 L29.8715646,19.0032 C30.0407659,18.9077761 30.2478742,18.9092093 30.4157387,19.0069656 C30.5836033,19.104722 30.687058,19.2841462 30.6875646,19.4784 Z M13.2059646,15.5712 L19.7915646,11.7744 C20.3856147,11.431425 21.1175146,11.431425 21.7115646,11.7744 L28.2875646,15.5712 C28.4629658,15.6672071 28.5720331,15.8512427 28.5720331,16.0512 C28.5720331,16.2511573 28.4629658,16.4351929 28.2875646,16.5312 L21.2315646,20.6016 C20.9439911,20.7699488 20.5879382,20.7699488 20.3003646,20.6016 L13.2059646,16.5168 C13.0377194,16.4187716 12.9342424,16.2387204 12.9342424,16.044 C12.9342424,15.8492796 13.0377194,15.6692284 13.2059646,15.5712 Z M21.3659646,2.3472 L35.8235646,10.6896 C37.7094979,11.7784409 38.8699916,13.7919158 38.8667646,15.9696 L38.8667646,29.8896 C38.8699916,32.0672842 37.7094979,34.0807591 35.8235646,35.1696 L23.7899646,42.072 C21.9053408,43.1600881 19.5833885,43.1600881 17.6987646,42.072 L5.66996463,35.1264 C3.78403134,34.0375591 2.62353762,32.0240842 2.62676463,29.8464 L2.62676463,13.2336 C2.62721106,12.78531 2.38718588,12.3712207 1.99796463,12.1488 C1.60952861,11.9245328 1.1310498,11.9241205 0.742227839,12.1477179 C0.35340588,12.3713152 0.113101553,12.7850736 0.111564626,13.2336 L0.111564626,29.856 C0.116370077,32.9328952 1.76343113,35.7731605 4.43156463,37.3056 L16.4315646,44.2512 C19.093174,45.7867385 22.3715553,45.7867385 25.0331646,44.2512 L37.0715646,37.3056 C39.740423,35.7738885 41.3877511,32.9331627 41.3915646,29.856 L41.3915646,15.96 C41.3798568,12.8849713 39.7346498,10.0479032 37.0715646,8.5104 L22.6331646,0.168 C22.2442871,-0.0542430048 21.766555,-0.0528820979 21.3789499,0.171572859 C20.9913449,0.396027816 20.752373,0.809697067 20.7515646,1.2576 C20.7503987,1.70608289 20.9881582,2.12124754 21.3755646,2.3472 L21.3659646,2.3472 Z M9.14516463,30.9072 C8.38125342,30.4650129 7.91107459,29.6490605 7.91156463,28.7664 L7.91156463,16.8 C7.9098105,15.9182572 8.38055873,15.1031484 9.14516463,14.664 L19.5275646,8.64 C20.2906527,8.19828468 21.2316765,8.19828468 21.9947646,8.64 L32.3771646,14.6448 C33.1462857,15.088819 33.6174246,15.9119371 33.6107646,16.8 L33.6107646,29.3472 C33.6115768,29.7964065 33.8510336,30.2113431 34.2395646,30.4368 C34.6281605,30.6511345 35.1007596,30.6456814 35.4843064,30.4224374 C35.8678533,30.1991935 36.1060084,29.7909512 36.1115646,29.3472 L36.1115646,16.8 C36.1124021,15.0183977 35.1627824,13.3716584 33.6203646,12.48 L23.2523646,6.4752 C21.710276,5.5871554 19.8120533,5.5871554 18.2699646,6.4752 L7.88756463,12.48 C6.34329929,13.3704384 5.39171713,15.0174075 5.39156463,16.8 L5.39156463,28.8 C5.38973587,30.5818672 6.33962099,32.2290669 7.88276463,33.12 L18.8747646,39.4272 C19.2633327,39.6470122 19.7393088,39.6443493 20.1253931,39.4202032 C20.5114773,39.1960571 20.7497917,38.7840296 20.7515646,38.3376 C20.7517385,37.888129 20.512018,37.4727355 20.1227646,37.248 L9.14516463,30.9072 Z"/>
  </g>
</svg>
