<svg xmlns="http://www.w3.org/2000/svg" width="124" height="136" viewBox="0 0 124 136">
  <defs>
    <linearGradient id="observian_logo-a" x1="12.453%" x2="87.895%" y1="84.924%" y2="16.33%">
      <stop offset="0%" stop-color="#1D8DBA"/>
      <stop offset="100%" stop-color="#03ECAE"/>
    </linearGradient>
  </defs>
  <path fill="url(#observian_logo-a)" d="M91.2277536,58.1097471 L91.2277536,81.5396693 C91.2307747,83.5893138 90.1385073,85.4843978 88.3634599,86.5092189 L64.4466077,100.329436 C62.6741766,101.352749 60.4904515,101.352749 58.7180204,100.329436 L34.8011682,86.5092189 C33.0261208,85.4843978 31.9338534,83.5893138 31.9368745,81.5396693 L31.9368745,58.1097471 C31.9303026,57.5232052 32.238887,56.9782186 32.7452389,56.6821064 C33.2515907,56.3859943 33.8778748,56.3842741 34.3858456,56.6776002 L59.4197723,71.1422833 C60.0774479,71.5241145 60.8219368,71.7311908 61.582314,71.743785 C62.3472685,71.7453371 63.0987668,71.5426303 63.7591772,71.1566048 L88.793104,56.6919217 C89.2979396,56.4072112 89.9158761,56.4114872 90.4167232,56.703157 C90.9175704,56.9948269 91.226242,57.5301637 91.2277536,58.1097471 Z M39.0689657,46.4520718 L58.7180204,35.1237903 C60.4904515,34.1004767 62.6741766,34.1004767 64.4466077,35.1237903 L84.0670194,46.4520718 C84.5903532,46.7385223 84.9157708,47.2876182 84.9157708,47.8842186 C84.9157708,48.4808191 84.5903532,49.0299149 84.0670194,49.3163655 L63.0144609,61.4609707 C62.1564451,61.9632627 61.0941118,61.9632627 60.236096,61.4609707 L39.0689657,49.2734011 C38.5669826,48.9809197 38.2582446,48.4437119 38.2582446,47.8627364 C38.2582446,47.281761 38.5669826,46.7445532 39.0689657,46.4520718 Z M63.415462,6.99642642 L106.551725,31.8871385 C112.178669,35.1358469 115.641164,41.1433296 115.631536,47.6407537 L115.631536,89.173012 C115.641164,95.670436 112.178669,101.677919 106.551725,104.926627 L70.6478035,125.520899 C65.0247659,128.767361 58.0968978,128.767361 52.4738602,125.520899 L16.5842604,104.797734 C10.9573158,101.549026 7.49482122,95.5415428 7.50444943,89.0441188 L7.50444943,39.4775167 C7.50578143,38.139981 6.78963287,36.904488 5.62833707,36.2408649 C4.46938412,35.5717326 3.04177597,35.5705024 1.88167151,36.2376362 C0.721567056,36.9047701 0.00458563597,38.1392757 0,39.4775167 L0,89.0727617 C0.0143377319,98.253107 4.92857375,106.727434 12.8893215,111.299681 L48.6929925,132.022845 C56.6342745,136.604338 66.4157818,136.604338 74.3570638,132.022845 L110.275307,111.299681 C118.238217,106.729606 123.15325,98.2539052 123.164628,89.0727617 L123.164628,47.6121107 C123.129696,38.4373344 118.220992,29.9725467 110.275307,25.3851918 L67.1963297,0.49447977 C66.0360594,-0.168613181 64.6106791,-0.164552726 63.4542055,0.505139892 C62.2977319,1.17483251 61.5847258,2.40907232 61.582314,3.74545309 C61.5788353,5.08356425 62.2882239,6.32226579 63.4441049,6.99642642 L63.415462,6.99642642 Z M26.9530035,92.2091633 C24.6737681,90.8898364 23.270924,88.4553289 23.2723861,85.8217884 L23.2723861,50.1183677 C23.2671524,47.4875652 24.6716953,45.0555746 26.9530035,43.7453143 L57.9303396,25.7718715 C60.2071192,24.4539523 63.0147947,24.4539523 65.2915744,25.7718715 L96.2689105,43.6880284 C98.5636903,45.0128208 99.9693988,47.4687084 99.9495278,50.1183677 L99.9495278,87.5546861 C99.9519511,88.8949562 100.666404,90.1329774 101.82564,90.8056594 C102.98507,91.4451562 104.395135,91.4288861 105.539501,90.7628067 C106.683866,90.0967273 107.394435,88.8786797 107.411013,87.5546861 L107.411013,50.1183677 C107.413512,44.8027092 104.580189,39.8894332 99.9781708,37.2290462 L69.0437991,19.3128892 C64.4427628,16.6632845 58.7791511,16.6632845 54.1781149,19.3128892 L23.2007788,37.2290462 C18.5932481,39.8857931 15.7540702,44.7997549 15.7536152,50.1183677 L15.7536152,85.9220387 C15.7481589,91.2384877 18.5822734,96.1531371 23.1864573,98.8113602 L55.9826199,117.62977 C57.1419668,118.28561 58.5621078,118.277665 59.714044,117.608894 C60.8659802,116.940123 61.5770242,115.710781 61.582314,114.378796 C61.5828327,113.037737 60.8675932,111.798353 59.7062017,111.127823 L26.9530035,92.2091633 Z"/>
</svg>
