<svg xmlns="http://www.w3.org/2000/svg" width="27" height="26" viewBox="0 0 27 26">
  <path fill="#5D748E" fill-rule="evenodd" d="M5.36485,15.49295 C4.98245,15.71365 4.4926,15.5828 4.27225,15.20035 C4.2586,15.1765 4.25,15.1519 4.23905,15.1281 C3.58045,13.9676 3.1996,12.6297 3.1996,11.2 C3.1996,8.2707 4.78125,5.716 7.1289,4.32265 C7.15275,4.30585 7.1738,4.2871 7.2004,4.27185 C7.5828,4.05115 8.0715,4.182 8.293,4.5648 C8.5137,4.9472 8.38325,5.4367 8.0004,5.6574 L7.9996,5.6574 L8.00195,5.6617 C6.08945,6.76795 4.8,8.83165 4.8,11.2 C4.8,12.3664 5.1172,13.45585 5.6621,14.39765 L5.6578,14.4 C5.8781,14.7828 5.74765,15.2719 5.36485,15.49295 Z M11.2,4.7996 C10.7578,4.7996 10.4,4.4414 10.4,4.0004 C10.4,3.5582 10.7578,3.2 11.2,3.2 C11.6422,3.2 12,3.5582 12,4.0004 C12,4.4414 11.6422,4.7996 11.2,4.7996 Z M24.6628,24.6625 C23.4128,25.9125 21.38665,25.9125 20.1378,24.6625 L17.99455,22.5203 C16.52345,21.0492 16.5844,19.89255 17.26565,18.8656 C19.65325,16.478 20.79965,14.25855 20.79965,11.2 C20.79965,5.89845 16.5024,1.6 11.20005,1.6 C5.8977,1.6 1.6004,5.89845 1.6004,11.2 C1.6004,16.50195 5.89765,20.8004 11.2,20.8004 C11.6422,20.8004 12,21.1586 12,21.5996 C12,22.0418 11.6422,22.4 11.2,22.4 C5.01445,22.4 0,17.38515 0,11.2 C0,5.01405 5.01445,0 11.2,0 C14.2926,0 17.0926,1.2531 19.1199,3.2801 C19.38355,3.54375 19.62965,3.81875 19.8621,4.1016 C19.9625,4.2235 20.0504,4.3551 20.1465,4.4813 C20.2719,4.6477 20.4,4.81335 20.51565,4.9844 C20.6184,5.1383 20.7098,5.3 20.8047,5.4598 C20.8965,5.61255 20.9922,5.76255 21.0766,5.9188 C21.1672,6.08675 21.2434,6.26335 21.3258,6.43715 C21.4004,6.59535 21.4805,6.752 21.5465,6.91255 C21.61605,7.0805 21.67305,7.25435 21.7348,7.4266 C21.7969,7.59885 21.8629,7.7719 21.91645,7.9469 C21.96995,8.1223 22.0106,8.30315 22.05475,8.48205 C22.0981,8.65705 22.1481,8.8309 22.18285,9.00705 C22.22345,9.2125 22.2481,9.42385 22.27775,9.6336 C22.3,9.78595 22.3289,9.93905 22.34415,10.0922 C22.3797,10.45625 22.4,10.82655 22.4,11.2 C22.4,11.5211 22.38125,11.84295 22.3543,12.16365 C22.3457,12.2578 22.33475,12.35035 22.3246,12.44375 C22.29725,12.68905 22.2625,12.9324 22.21915,13.1758 C22.2039,13.259 22.1914,13.34375 22.17425,13.4262 C22.11255,13.73595 22.03755,14.0422 21.94965,14.34535 C21.92895,14.4149 21.90475,14.48245 21.88245,14.5524 C21.8094,14.78445 21.72895,15.0157 21.63985,15.2446 C21.5957,15.35905 21.55,15.4727 21.50155,15.58485 C21.41835,15.78055 21.32575,15.97585 21.23005,16.16885 C21.16015,16.30945 21.08905,16.44855 21.01365,16.58605 C20.5148,17.49385 19.88945,18.3501 19.1199,19.11965 C18.2114,20.02815 18.2502,20.51285 19.1199,21.38255 L21.2484,23.51145 C21.873,24.13605 22.8863,24.13605 23.5117,23.51145 C24.1359,22.88685 24.1359,21.87355 23.5117,21.24855 L21.807,19.54385 C21.79995,19.5368 21.7906,19.53525 21.78395,19.5286 C21.47185,19.2157 21.47185,18.7087 21.78395,18.39655 C22.09725,18.08445 22.6035,18.08445 22.916,18.39655 C22.91835,18.3993 22.91835,18.40165 22.9211,18.40435 L22.9254,18.40005 L24.6628,20.13755 C25.9124,21.3875 25.9124,23.41365 24.6628,24.6625 Z M14.3996,20.8004 C14.8418,20.8004 15.1996,21.1586 15.1996,21.5996 C15.1996,22.0418 14.8418,22.4 14.3996,22.4 C13.9586,22.4 13.6004,22.0418 13.6004,21.5996 C13.6004,21.1586 13.9586,20.8004 14.3996,20.8004 Z" transform="translate(.665 .2)"/>
</svg>
