<svg xmlns="http://www.w3.org/2000/svg" width="27" height="24" viewBox="0 0 27 24">
  <path fill="#DCE1E0" fill-rule="evenodd" d="M26.2144,3.8843904 C26.2144,4.2443776 26.1016064,4.5769728 25.9083776,4.8487936 C25.3932032,5.6194048 24.6935552,6.178816 23.9951872,6.7648 C23.8519808,6.9033984 23.7612032,7.0918144 23.7491712,7.3039872 C23.6711936,10.8447744 22.359552,14.8941824 20.0228352,17.5702016 C17.228032,20.7696896 13.4180352,22.9401088 9.0108416,22.9401088 C8.5590528,22.9401088 8.1916416,22.5729024 8.1916416,22.1209088 C8.1916416,21.668096 8.5590528,21.3017088 9.0108416,21.3017088 C17.1288576,21.3017088 21.5519744,14.2053888 22.0672,8.1472 C22.0912128,8.0626176 22.1060096,7.953408 22.1060096,7.7982208 C22.1060096,7.7466112 22.1068288,7.6952064 22.1095936,7.6448256 C22.1499904,6.9384704 22.4659968,6.3056384 22.9508096,5.8518528 C22.9748224,5.828864 22.9932032,5.807872 23.010816,5.7866752 C23.602432,5.2042752 24.1480192,4.5236736 24.5704192,3.8844928 C23.9704064,4.1537024 23.3376256,4.3574784 22.6800128,4.4953088 C22.5700352,4.4953088 22.4772096,4.4025344 22.4772096,4.2905088 C22.4772096,4.234496 22.4999936,4.1830912 22.5368064,4.1463296 C22.5383936,4.1445376 22.5312256,4.1471488 22.5304064,4.1471488 C23.1759872,3.5833344 23.6711936,2.8465664 23.9375872,2.0061696 C23.5039744,2.2651904 23.0464,2.4883712 22.5715712,2.6767872 C22.2647808,2.7990016 21.9315712,2.8696064 21.5803904,2.8696064 C21.033984,2.8696064 20.5260288,2.7052032 20.1036288,2.4231936 C20.0872448,2.4121856 20.0704512,2.4048128 20.054016,2.3947776 C19.3540096,1.9245568 18.5376256,1.6415744 17.6128,1.6415744 L17.5163904,1.6589824 C15.4816,1.6589824 13.9352064,2.8061696 13.3572096,4.5623808 C13.3409792,4.5699072 13.1753984,5.299968 13.1588096,5.4047744 C13.0054144,6.3837696 12.1586176,7.1323648 11.1362048,7.1323648 C11.0252032,7.1323648 10.9157888,7.1231488 10.8091904,7.104768 C8.122624,6.6023936 5.697024,5.4405632 3.886592,3.5511808 C3.875584,3.5419648 3.8671872,3.5392 3.8515712,3.523584 C3.6119552,3.2837632 3.2233472,3.2837632 2.9827584,3.523584 C2.9267456,3.5805696 2.8835328,3.6447744 2.8531712,3.71456 C2.845952,3.7321728 2.8413952,3.7321728 2.8357632,3.7357568 C2.6171392,4.2409472 2.457344,4.7873536 2.457344,5.3275648 C2.457344,6.4453632 2.9119488,7.465728 3.5953664,8.276736 C3.5953664,8.27776 3.5871744,8.273152 3.5907584,8.276736 C3.65056,8.3483136 3.6863488,8.44032 3.6863488,8.5403136 C3.6863488,8.7663104 3.5025408,8.9499136 3.276544,8.9499136 C3.2315392,8.9499136 3.1893504,8.9381376 3.1489536,8.9243136 C3.1425536,8.9214976 3.1361536,8.9187328 3.1297536,8.9161216 C3.1223296,8.9187328 3.1141376,8.9225216 3.1011328,8.9161216 C3.046144,8.8885248 2.9845504,8.8729088 2.9185536,8.8729088 C2.6961408,8.8729088 2.5161728,9.052928 2.5105408,9.2732928 C2.7237376,10.7309056 3.6183552,12.021504 4.8261632,12.7783424 C4.8105472,12.7767552 4.8013824,12.7767552 4.8069632,12.7799296 C4.9179648,12.852736 4.9923584,12.9795072 4.9923584,13.1227136 C4.9923584,13.3487104 4.8087552,13.5323136 4.5827584,13.5323136 C4.5781504,13.5323136 4.5735424,13.5314944 4.5689344,13.5314944 C4.5635584,13.5303168 4.5589504,13.5286784 4.5533184,13.5279104 C4.5387264,13.5259136 4.5249024,13.5230976 4.5101056,13.5215104 C4.3999232,13.5270912 4.3134976,13.6142848 4.3134976,13.7243136 C4.3134976,13.7567232 4.3201024,13.7867264 4.3337216,13.813504 C4.667136,14.6439168 5.231104,15.3534976 5.9411456,15.8727168 C5.9495424,15.8791168 5.9513344,15.8846976 5.9613696,15.8919168 C6.0219904,15.9351296 6.078976,15.9846912 6.1341696,16.0391168 C6.693376,16.5983232 6.693376,17.5058944 6.1341696,18.0663296 C5.9623936,18.2367232 5.7583616,18.3563264 5.5425536,18.4223232 C5.5407616,18.4231424 5.5417344,18.4223232 5.5397376,18.4231424 C4.7003136,18.689536 3.8111232,18.8439552 2.866944,18.8439552 C2.7089408,18.8439552 2.5327616,18.8439552 2.3553536,18.8439552 C2.2423552,18.8439552 2.1505536,18.9359616 2.1505536,19.0487552 C2.1505536,19.1151616 2.1835776,19.1703552 2.2313472,19.207168 C2.5685504,19.4071552 2.9139456,19.6027904 3.27296,19.7847552 L3.2721408,19.7855744 C3.5135488,19.9206912 3.6799488,20.175872 3.6799488,20.4734976 C3.6799488,20.9098752 3.3263616,21.2635136 2.8899328,21.2635136 C2.7117568,21.2635136 2.5483264,21.20192 2.4159232,21.1026944 C1.84192,20.802304 1.2853248,20.4807168 0.7563264,20.1382912 C0.1117184,19.7214208 -0.1620992,18.910208 0.0969216,18.1826048 C0.3321344,17.5174144 0.9521152,17.2054016 1.6382976,17.2054016 C1.9430912,17.2422144 2.55488,17.2054016 2.8670976,17.2054016 C3.4962944,17.2054016 4.0116736,17.0758144 4.6076928,16.9317888 C3.7130752,16.1730048 3.0222848,15.1625728 2.6484736,13.9842048 C2.5556992,13.6909824 2.5464832,13.383424 2.6154496,13.0934272 C1.558272,11.93984 0.8188928,10.2624256 0.8188928,8.6046208 C0.8270848,8.1939968 1.0888704,7.8514176 1.356288,7.5584 C1.0972672,6.8538368 0.8188928,6.1026304 0.8188928,5.3274112 C0.8188928,4.1939968 1.2570624,3.0761984 1.8200576,2.1016064 C2.0918784,1.6313856 2.739456,1.2740096 3.2766464,1.2318208 C3.768064,1.2318208 4.1998336,1.5017984 4.513024,1.8894336 C6.0580352,3.801856 8.4762112,4.8296448 10.8552192,5.4174208 C10.895616,5.42464 10.9388288,5.4302208 10.9820416,5.4302208 C11.3724416,5.4302208 11.6956672,5.1592192 11.7802496,4.7936 C12.4322304,2.0400128 14.5696256,0 17.5164416,0 C18.7628544,0 19.9780352,0.375808 21.005568,1.0564096 C21.165568,1.1574272 21.3519872,1.2190208 21.5547904,1.2190208 C21.6448,1.2190208 21.7311744,1.204224 21.8127872,1.182208 C22.2567936,1.016832 22.6891776,0.824832 23.0987776,0.578816 C23.3587712,0.423424 23.648,0.4115968 23.9363584,0.4115968 C24.3003392,0.4115968 24.6631424,0.4694016 24.960768,0.7081984 C25.4943744,1.1372032 25.7099776,1.8546176 25.5015424,2.5103872 C25.5015424,2.5121792 25.5007232,2.5139712 25.5007232,2.5157632 C25.9316224,2.8151808 26.2144,3.3167872 26.2144,3.8843904 Z M1.6560453,17.2084597 C1.5302453,17.1943597 1.7813453,17.2084597 1.6560453,17.2084597 Z M3.28830421,1.23344747 C3.20580421,1.23344747 3.37110421,1.22594747 3.28830421,1.23344747 Z M6.144256,20.8921088 C6.5962496,20.8921088 6.9636608,21.258496 6.9636608,21.7113088 C6.9636608,22.1633024 6.5962496,22.5305088 6.144256,22.5305088 C5.6914432,22.5305088 5.325056,22.1633024 5.325056,21.7113088 C5.325056,21.258496 5.6914944,20.8921088 6.144256,20.8921088 Z" opacity=".7" transform="translate(.201 .657)"/>
</svg>
